HIERARCHY
ROOT Hips
{
 OFFSET 0.000000 0.000000 0.000000
 CHANNELS 6 Xposition Yposition Zposition Yrotation Xrotation Zrotation
 JOINT Chest
 {
  OFFSET 0.000000 9.585900 0.002600
  CHANNELS 3 Yrotation Xrotation Zrotation
  JOINT Chest2
  {
   OFFSET 0.000000 9.601200 -0.005300
   CHANNELS 3 Yrotation Xrotation Zrotation
   JOINT Chest3
   {
    OFFSET 0.000000 9.561800 0.000000
    CHANNELS 3 Yrotation Xrotation Zrotation
    JOINT Chest4
    {
     OFFSET 0.000000 9.552100 0.000000
     CHANNELS 3 Yrotation Xrotation Zrotation
     JOINT Neck
     {
      OFFSET 0.000000 14.453000 0.000000
      CHANNELS 3 Yrotation Xrotation Zrotation
      JOINT Head
      {
       OFFSET 0.000000 8.936500 -0.011300
       CHANNELS 3 Yrotation Xrotation Zrotation
       End Site
       {
        OFFSET 0.000000 17.073600 -0.006000
       }
      }
     }
     JOINT RightCollar
     {
      OFFSET -2.921100 9.558500 0.000000
      CHANNELS 3 Yrotation Xrotation Zrotation
      JOINT RightShoulder
      {
       OFFSET -13.519700 0.000000 0.000000
       CHANNELS 3 Yrotation Xrotation Zrotation
       JOINT RightElbow
       {
        OFFSET 0.000000 -29.696600 0.000000
        CHANNELS 3 Yrotation Xrotation Zrotation
        JOINT RightWrist
        {
         OFFSET 0.000000 -24.004700 0.000000
         CHANNELS 3 Yrotation Xrotation Zrotation
         End Site
         {
          OFFSET 0.000000 -17.728500 0.000000
         }
        }
       }
      }
     }
     JOINT LeftCollar
     {
      OFFSET 2.921100 9.558500 0.000000
      CHANNELS 3 Yrotation Xrotation Zrotation
      JOINT LeftShoulder
      {
       OFFSET 13.519700 0.000000 0.000000
       CHANNELS 3 Yrotation Xrotation Zrotation
       JOINT LeftElbow
       {
        OFFSET 0.000000 -29.696600 0.000000
        CHANNELS 3 Yrotation Xrotation Zrotation
        JOINT LeftWrist
        {
         OFFSET 0.000000 -24.004700 0.000000
         CHANNELS 3 Yrotation Xrotation Zrotation
         End Site
         {
          OFFSET 0.000000 -17.728500 0.000000
         }
        }
       }
      }
     }
    }
   }
  }
 }
 JOINT RightHip
 {
  OFFSET -7.771700 -0.012900 -0.001300
  CHANNELS 3 Yrotation Xrotation Zrotation
  JOINT RightKnee
  {
   OFFSET 0.000000 -40.869800 0.001200
   CHANNELS 3 Yrotation Xrotation Zrotation
   JOINT RightAnkle
   {
    OFFSET 0.000000 -39.717900 0.002100
    CHANNELS 3 Yrotation Xrotation Zrotation
    JOINT RightToe
    {
     OFFSET 0.000000 -4.965400 11.033500
     CHANNELS 3 Yrotation Xrotation Zrotation
     End Site
     {
      OFFSET 0.000000 -1.423100 5.872300
     }
    }
   }
  }
 }
 JOINT LeftHip
 {
  OFFSET 7.771700 -0.012900 -0.001300
  CHANNELS 3 Yrotation Xrotation Zrotation
  JOINT LeftKnee
  {
   OFFSET 0.000000 -40.869800 0.001200
   CHANNELS 3 Yrotation Xrotation Zrotation
   JOINT LeftAnkle
   {
    OFFSET 0.000000 -39.717900 0.002100
    CHANNELS 3 Yrotation Xrotation Zrotation
    JOINT LeftToe
    {
     OFFSET 0.000000 -4.965400 11.033500
     CHANNELS 3 Yrotation Xrotation Zrotation
     End Site
     {
      OFFSET 0.000000 -1.423100 5.872300
     }
    }
   }
  }
 }
}
MOTION
Frames: 13
Frame Time: 0.008333
-125.556878 57.783132 104.576440 176.974687 -32.417281 -0.908845 2.336065 19.930235 3.444674 0.231260 2.555959 0.362293 0.350492 4.058646 0.622957 1.884280 17.231661 2.795123 -1.222502 14.027885 -5.281150 -0.268793 -9.634340 -9.482048 2.956370 -3.385213 -0.207883 17.084109 -21.370278 -22.549480 144.878367 -73.652962 -90.292019 19.427802 -12.576446 -50.505203 -7.616428 -4.802571 -2.636817 -5.223355 -14.062296 3.088953 41.102909 -32.519957 -78.246975 15.045152 -13.487606 19.520327 8.901164 -42.675536 -6.354282 -8.457856 67.532380 -8.153001 6.768108 23.634577 4.915240 -0.471154 -16.350260 3.360964 -8.448501 -40.769779 0.584591 24.418615 65.674282 22.631702 -20.538533 4.716128 -4.281418 -0.128041 -0.112316 -0.035778
-125.570710 57.779646 104.580946 176.985708 -32.424021 -0.915892 2.359844 20.006305 3.439146 0.213026 2.509074 0.375779 0.373171 4.152004 0.612022 1.871974 17.164444 2.803032 -1.248562 14.015280 -5.301203 -0.311582 -9.775354 -9.474922 2.940503 -3.356364 -0.224420 17.060128 -21.409735 -22.503909 144.810722 -73.730769 -90.228301 19.404790 -12.592736 -50.356066 -7.638210 -4.823813 -2.627466 -5.269969 -14.011828 3.162749 41.170592 -32.504663 -78.316297 15.038963 -13.514375 19.508588 8.977971 -42.661975 -6.442100 -8.474710 67.534098 -8.084894 6.774130 23.623305 4.895845 -0.468876 -16.336131 3.366559 -8.444867 -40.777445 0.571979 24.273469 65.708623 22.492010 -20.470410 4.747972 -4.264810 -0.142842 -0.119378 -0.040087
-125.586509 57.777078 104.584463 176.989745 -32.442833 -0.917999 2.369278 20.046393 3.437131 0.221604 2.539757 0.371982 0.376998 4.176232 0.612607 1.867031 17.136631 2.806254 -1.268079 13.992972 -5.313067 -0.351690 -9.905525 -9.475390 2.926514 -3.323082 -0.238384 17.000001 -21.378105 -22.390771 144.752663 -73.688739 -90.173978 19.380762 -12.606936 -50.221040 -7.652741 -4.862351 -2.612920 -5.311413 -13.938581 3.224797 41.234937 -32.497325 -78.390014 15.075785 -13.507470 19.524281 9.075184 -42.634908 -6.546938 -8.494763 67.536052 -8.003379 6.784511 23.617770 4.881396 -0.477287 -16.326717 3.367523 -8.437248 -40.765173 0.562763 24.138339 65.733178 22.354316 -20.423525 4.770915 -4.251919 -0.148362 -0.120485 -0.039588
-125.602998 57.774988 104.587706 176.990389 -32.469977 -0.923353 2.375586 20.079922 3.442731 0.236158 2.583064 0.365253 0.368228 4.155865 0.618311 1.895946 17.272998 2.793692 -1.297725 13.852546 -5.302703 -0.383456 -10.034491 -9.479583 2.902783 -3.403655 -0.239646 16.943202 -21.346188 -22.282815 144.686014 -73.627853 -90.121312 19.356877 -12.621328 -50.102515 -7.697924 -4.982941 -2.571275 -5.323629 -13.911106 3.280328 41.241912 -32.464946 -78.425246 15.115007 -13.482231 19.537035 9.176556 -42.598295 -6.652536 -8.557868 67.529981 -7.953209 6.818754 23.622605 4.869954 -0.477951 -16.323987 3.363146 -8.430006 -40.745998 0.560521 24.049761 65.750116 22.263963 -20.416192 4.812039 -4.259595 -0.127596 -0.148976 -0.022609
-125.619537 57.773995 104.589891 177.007501 -32.511881 -0.943960 2.382027 20.148386 3.453970 0.237014 2.595298 0.368752 0.363153 4.146147 0.619682 1.902405 17.314327 2.791351 -1.311945 13.805916 -5.309764 -0.406776 -10.162288 -9.488466 2.904183 -3.383270 -0.253110 16.898545 -21.340695 -22.203918 144.620428 -73.588855 -90.078300 19.336244 -12.634173 -50.000166 -7.723991 -4.965762 -2.570829 -5.331828 -13.923633 3.343726 41.251381 -32.457848 -78.460648 15.106309 -13.509934 19.514144 9.254694 -42.545833 -6.742672 -8.549507 67.530167 -7.845369 6.831115 23.621119 4.871433 -0.487230 -16.320290 3.355913 -8.442635 -40.708982 0.562780 24.026921 65.757065 22.238990 -20.420179 4.830583 -4.272445 -0.112703 -0.145645 -0.009285
-125.638476 57.770021 104.597336 177.010409 -32.524116 -0.948721 2.410252 20.215077 3.460294 0.225865 2.579679 0.374006 0.365247 4.164257 0.618637 1.910253 17.372041 2.793305 -1.325867 13.713525 -5.315477 -0.421637 -10.290757 -9.503513 2.905328 -3.402705 -0.271722 16.852487 -21.338701 -22.128176 144.564039 -73.541243 -90.047660 19.365096 -12.648453 -49.947699 -7.742280 -5.032907 -2.554824 -5.339969 -13.913353 3.376195 41.255229 -32.453319 -78.472986 15.101614 -13.524980 19.485357 9.351187 -42.524183 -6.850309 -8.546257 67.525528 -7.741754 6.846530 23.618976 4.865780 -0.489694 -16.308665 3.350740 -8.444255 -40.699435 0.562615 23.967335 65.760181 22.168225 -20.404774 4.847554 -4.269305 -0.082479 -0.112334 -0.013516
-125.656695 57.765155 104.607098 177.019794 -32.529304 -0.963838 2.418699 20.248538 3.474024 0.227091 2.591956 0.375206 0.368567 4.180695 0.617846 1.918813 17.431415 2.798566 -1.338220 13.614919 -5.321352 -0.422756 -10.414230 -9.530109 2.907417 -3.420268 -0.296256 16.807984 -21.338669 -22.056112 144.527267 -73.472595 -90.035222 19.374712 -12.656243 -49.901739 -7.757753 -5.113392 -2.540679 -5.345655 -13.929718 3.389306 41.212714 -32.389794 -78.406413 15.073903 -13.544104 19.443823 9.429970 -42.510736 -6.942733 -8.533447 67.507669 -7.637380 6.861559 23.645025 4.869853 -0.487223 -16.313336 3.339477 -8.457110 -40.698673 0.578088 23.963832 65.747041 22.149482 -20.441954 4.876957 -4.276465 -0.053491 -0.103067 -0.007156
-125.673898 57.762376 104.614712 177.023204 -32.559805 -0.980689 2.434444 20.306996 3.494578 0.228299 2.604144 0.376486 0.382848 4.261668 0.622124 1.910955 17.402734 2.797871 -1.348979 13.527344 -5.323470 -0.403875 -10.523410 -9.574102 2.913092 -3.413552 -0.324220 16.766109 -21.339407 -21.987082 144.517730 -73.367791 -90.044909 19.309515 -12.661026 -49.838735 -7.766520 -5.163811 -2.531512 -5.345447 -13.890302 3.409170 41.235299 -32.401702 -78.445471 15.072449 -13.542145 19.428272 9.497667 -42.473250 -7.012791 -8.495111 67.493451 -7.523811 6.881570 23.665607 4.886323 -0.500654 -16.317301 3.329566 -8.463687 -40.671080 0.589705 23.995103 65.733363 22.172620 -20.477477 4.908173 -4.297950 -0.047128 -0.103448 0.009912
-125.691458 57.757402 104.626763 177.017717 -32.568513 -0.989698 2.450041 20.329316 3.509191 0.235111 2.631738 0.376783 0.377726 4.249441 0.623765 1.922038 17.466232 2.803166 -1.351430 13.456898 -5.338713 -0.381133 -10.645668 -9.615129 2.920722 -3.406446 -0.352543 16.725756 -21.339964 -21.923865 144.501881 -73.313139 -90.061457 19.246388 -12.679894 -49.761084 -7.775208 -5.206867 -2.520522 -5.334052 -13.791659 3.410369 41.282928 -32.492891 -78.544489 15.088607 -13.534844 19.434197 9.569335 -42.460803 -7.080920 -8.449338 67.475725 -7.415326 6.894163 23.691288 4.905161 -0.510156 -16.320023 3.319919 -8.458697 -40.666359 0.599621 24.021667 65.716857 22.194113 -20.529767 4.934024 -4.311663 -0.023441 -0.096766 0.017252
-125.708378 57.752247 104.640105 177.014143 -32.577451 -1.000253 2.464909 20.352616 3.523884 0.239020 2.648786 0.377693 0.375334 4.247861 0.625093 1.924076 17.482332 2.805505 -1.326660 13.456965 -5.372785 -0.369510 -10.786762 -9.645007 2.925201 -3.403070 -0.366080 16.695361 -21.289727 -21.861816 144.520574 -73.260019 -90.109678 19.227820 -12.697564 -49.719499 -7.779081 -5.214807 -2.510618 -5.323020 -13.715322 3.392953 41.312870 -32.567485 -78.605866 15.104625 -13.529530 19.439221 9.627977 -42.450370 -7.137165 -8.410406 67.456937 -7.324785 6.909415 23.719884 4.927678 -0.503268 -16.325382 3.304893 -8.448213 -40.658599 0.606261 24.033245 65.698399 22.203457 -20.564278 4.954195 -4.320482 -0.007096 -0.086209 0.025278
-125.724986 57.747647 104.653425 177.019142 -32.594603 -1.012495 2.488723 20.426587 3.539956 0.223518 2.601146 0.380615 0.393260 4.341154 0.628670 1.911295 17.424664 2.803212 -1.303954 13.443130 -5.401075 -0.337087 -10.909858 -9.692642 2.949367 -3.322101 -0.392908 16.649378 -21.315774 -21.812841 144.537780 -73.207866 -90.155937 19.230094 -12.722010 -49.691201 -7.783633 -5.231238 -2.500743 -5.308158 -13.640205 3.365714 41.336229 -32.619649 -78.636657 15.103261 -13.521550 19.441205 9.670376 -42.433134 -7.187086 -8.381232 67.442233 -7.253128 6.935937 23.742471 4.956210 -0.516010 -16.328533 3.291895 -8.443715 -40.644212 0.607310 24.035100 65.683805 22.202988 -20.586105 4.975160 -4.324711 0.003677 -0.085011 0.032959
-125.740060 57.743052 104.667437 177.018597 -32.614059 -1.025451 2.500924 20.470969 3.555230 0.228270 2.613774 0.382662 0.393900 4.373305 0.631186 1.917489 17.442564 2.806894 -1.289349 13.382110 -5.426758 -0.286366 -11.020581 -9.753307 2.970841 -3.284952 -0.425974 16.601379 -21.335889 -21.760899 144.582330 -73.195803 -90.234264 19.279880 -12.749401 -49.661987 -7.794719 -5.309702 -2.490623 -5.289381 -13.533115 3.327245 41.373994 -32.651462 -78.632040 15.060314 -13.502580 19.410007 9.682709 -42.416071 -7.196198 -8.373102 67.419556 -7.234111 6.951914 23.770393 4.976934 -0.514983 -16.332155 3.287628 -8.444236 -40.628925 0.616445 24.018521 65.675709 22.181847 -20.590023 4.998720 -4.325897 0.014734 -0.074986 0.033793
-125.754726 57.738164 104.682274 177.016731 -32.632366 -1.033812 2.509154 20.507139 3.564653 0.232998 2.651816 0.384038 0.391034 4.358771 0.632630 1.929768 17.558282 2.819060 -1.270849 13.255714 -5.456885 -0.223851 -11.127061 -9.819793 2.991935 -3.345903 -0.463823 16.557187 -21.322198 -21.705639 144.650994 -73.140927 -90.336716 19.299545 -12.779338 -49.641151 -7.804121 -5.424401 -2.466042 -5.267998 -13.447859 3.270828 41.405798 -32.757904 -78.678688 15.055408 -13.501068 19.433433 9.697986 -42.400661 -7.208581 -8.368802 67.396959 -7.220389 6.967294 23.799186 4.997441 -0.513937 -16.335746 3.283423 -8.440823 -40.616501 0.617935 23.983246 65.670764 22.143619 -20.572312 5.025407 -4.322141 0.005776 -0.067288 0.032113
